<svg xmlns="http://www.w3.org/2000/svg" xmlns:xlink="http://www.w3.org/1999/xlink" width="500" zoomAndPan="magnify" viewBox="0 0 375 374.999991" height="500" preserveAspectRatio="xMidYMid meet" version="1.0"><defs><g/></defs><rect x="-37.5" width="450" fill="#ffffff" y="-37.499999" height="449.999989" fill-opacity="1"/><rect x="-37.5" width="450" fill="#ffffff" y="-37.499999" height="449.999989" fill-opacity="1"/><rect x="-37.5" width="450" fill="#ffffff" y="-37.499999" height="449.999989" fill-opacity="1"/><g fill="#f2819e" fill-opacity="1"><g transform="translate(35.549965, 175.327203)"><g><path d="M 51.3125 -12.15625 C 53.320312 -12.15625 54.710938 -13.25 55.484375 -15.4375 C 56.265625 -17.632812 56.65625 -21.207031 56.65625 -26.15625 L 56.8125 -45.125 C 56.8125 -47.851562 57.441406 -49.847656 58.703125 -51.109375 C 59.960938 -52.378906 62.140625 -53.015625 65.234375 -53.015625 C 67.148438 -53.015625 68.6875 -52.703125 69.84375 -52.078125 C 71.007812 -51.460938 72.003906 -50.25 72.828125 -48.4375 C 73.648438 -46.632812 74.210938 -44.1875 74.515625 -41.09375 C 74.828125 -38 74.984375 -33.898438 74.984375 -28.796875 C 74.984375 -25.742188 74.722656 -22.898438 74.203125 -20.265625 C 73.691406 -17.640625 73 -15.347656 72.125 -13.390625 C 71.25 -11.429688 70.203125 -9.664062 68.984375 -8.09375 C 67.773438 -6.519531 66.5 -5.210938 65.15625 -4.171875 C 63.820312 -3.140625 62.40625 -2.273438 60.90625 -1.578125 C 59.40625 -0.890625 57.945312 -0.398438 56.53125 -0.109375 C 55.113281 0.171875 53.734375 0.3125 52.390625 0.3125 C 47.742188 0.3125 43.539062 -1.160156 39.78125 -4.109375 C 36.0625 -1.054688 31.859375 0.46875 27.171875 0.46875 C 25.148438 0.46875 23.132812 0.171875 21.125 -0.421875 C 19.113281 -1.015625 17.0625 -2.035156 14.96875 -3.484375 C 12.882812 -4.929688 11.039062 -6.722656 9.4375 -8.859375 C 7.84375 -11.003906 6.539062 -13.789062 5.53125 -17.21875 C 4.53125 -20.644531 4.03125 -24.453125 4.03125 -28.640625 C 4.03125 -35.390625 4.347656 -40.492188 4.984375 -43.953125 C 5.628906 -47.410156 6.609375 -49.757812 7.921875 -51 C 9.242188 -52.238281 11.171875 -52.859375 13.703125 -52.859375 C 15.816406 -52.859375 17.488281 -52.5625 18.71875 -51.96875 C 19.957031 -51.375 20.835938 -50.507812 21.359375 -49.375 C 21.878906 -48.238281 22.140625 -46.769531 22.140625 -44.96875 L 22.21875 -26.078125 C 22.21875 -21.128906 22.601562 -17.546875 23.375 -15.328125 C 24.144531 -13.109375 25.664062 -12 27.9375 -12 C 29.070312 -12 29.921875 -12.472656 30.484375 -13.421875 C 31.054688 -14.378906 31.445312 -15.914062 31.65625 -18.03125 C 30.976562 -21.019531 30.640625 -25.691406 30.640625 -32.046875 C 30.640625 -35.597656 30.71875 -38.429688 30.875 -40.546875 C 31.03125 -42.660156 31.265625 -44.492188 31.578125 -46.046875 C 31.890625 -47.597656 32.40625 -48.707031 33.125 -49.375 C 33.84375 -50.039062 34.65625 -50.515625 35.5625 -50.796875 C 36.46875 -51.085938 37.71875 -51.234375 39.3125 -51.234375 C 40.238281 -51.234375 41.050781 -51.207031 41.75 -51.15625 C 42.445312 -51.101562 43.101562 -50.945312 43.71875 -50.6875 C 44.34375 -50.425781 44.859375 -50.191406 45.265625 -49.984375 C 45.679688 -49.785156 46.066406 -49.398438 46.421875 -48.828125 C 46.785156 -48.265625 47.070312 -47.773438 47.28125 -47.359375 C 47.488281 -46.953125 47.679688 -46.28125 47.859375 -45.34375 C 48.046875 -44.414062 48.175781 -43.601562 48.25 -42.90625 C 48.332031 -42.21875 48.382812 -41.1875 48.40625 -39.8125 C 48.4375 -38.445312 48.460938 -37.257812 48.484375 -36.25 C 48.515625 -35.25 48.53125 -33.820312 48.53125 -31.96875 C 48.53125 -25.46875 48.191406 -20.664062 47.515625 -17.5625 C 47.722656 -15.707031 48.109375 -14.34375 48.671875 -13.46875 C 49.242188 -12.59375 50.125 -12.15625 51.3125 -12.15625 Z M 51.3125 -12.15625 "/></g></g></g><g fill="#f2819e" fill-opacity="1"><g transform="translate(114.481368, 175.327203)"><g><path d="M 34.046875 -11.765625 L 21.203125 -11.765625 L 21.203125 -7.65625 C 21.203125 -5.03125 20.503906 -3.097656 19.109375 -1.859375 C 17.722656 -0.617188 15.328125 0 11.921875 0 C 10.472656 0 9.285156 -0.203125 8.359375 -0.609375 C 7.429688 -1.023438 6.617188 -1.722656 5.921875 -2.703125 C 5.222656 -3.679688 4.707031 -5.113281 4.375 -7 C 4.039062 -8.882812 3.78125 -11.15625 3.59375 -13.8125 C 3.414062 -16.46875 3.328125 -19.832031 3.328125 -23.90625 C 3.328125 -27.46875 3.703125 -30.734375 4.453125 -33.703125 C 5.203125 -36.671875 6.207031 -39.1875 7.46875 -41.25 C 8.726562 -43.3125 10.15625 -45.128906 11.75 -46.703125 C 13.351562 -48.273438 15.097656 -49.5 16.984375 -50.375 C 18.867188 -51.257812 20.703125 -51.921875 22.484375 -52.359375 C 24.265625 -52.796875 26.054688 -53.015625 27.859375 -53.015625 C 30.023438 -53.015625 32.164062 -52.71875 34.28125 -52.125 C 36.394531 -51.53125 38.535156 -50.507812 40.703125 -49.0625 C 42.867188 -47.625 44.765625 -45.832031 46.390625 -43.6875 C 48.015625 -41.539062 49.34375 -38.765625 50.375 -35.359375 C 51.40625 -31.960938 51.921875 -28.144531 51.921875 -23.90625 C 51.921875 -17.101562 51.675781 -12.0625 51.1875 -8.78125 C 50.695312 -5.507812 49.867188 -3.226562 48.703125 -1.9375 C 47.546875 -0.644531 45.757812 0 43.34375 0 C 39.9375 0 37.535156 -0.617188 36.140625 -1.859375 C 34.742188 -3.097656 34.046875 -5.03125 34.046875 -7.65625 Z M 27.703125 -40.390625 C 25.484375 -40.390625 23.84375 -39.742188 22.78125 -38.453125 C 21.726562 -37.171875 21.203125 -34.878906 21.203125 -31.578125 L 21.203125 -22.4375 L 34.046875 -22.4375 L 34.046875 -31.734375 C 34.046875 -33.898438 33.785156 -35.640625 33.265625 -36.953125 C 32.753906 -38.265625 32.046875 -39.164062 31.140625 -39.65625 C 30.242188 -40.144531 29.097656 -40.390625 27.703125 -40.390625 Z M 27.703125 -40.390625 "/></g></g></g><g fill="#f2819e" fill-opacity="1"><g transform="translate(169.578587, 175.327203)"><g><path d="M 40.9375 -25.46875 C 43.570312 -25.15625 45.972656 -23.820312 48.140625 -21.46875 C 50.304688 -19.125 51.390625 -16.117188 51.390625 -12.453125 C 51.390625 -8.898438 51.128906 -6.257812 50.609375 -4.53125 C 50.097656 -2.800781 49.222656 -1.613281 47.984375 -0.96875 C 46.742188 -0.320312 44.859375 0 42.328125 0 C 40.316406 0 38.65625 -0.28125 37.34375 -0.84375 C 36.03125 -1.414062 35.0625 -2.253906 34.4375 -3.359375 C 33.820312 -4.472656 33.515625 -5.90625 33.515625 -7.65625 C 33.515625 -9.925781 33.421875 -11.820312 33.234375 -13.34375 C 33.054688 -14.875 32.820312 -16.085938 32.53125 -16.984375 C 32.25 -17.890625 31.828125 -18.570312 31.265625 -19.03125 C 30.703125 -19.5 30.148438 -19.796875 29.609375 -19.921875 C 29.066406 -20.054688 28.328125 -20.125 27.390625 -20.125 L 23.296875 -20.125 L 23.296875 -11.53125 C 23.296875 -7.40625 22.492188 -4.453125 20.890625 -2.671875 C 19.296875 -0.890625 16.953125 0 13.859375 0 C 10.859375 0 8.648438 -0.835938 7.234375 -2.515625 C 5.816406 -4.191406 5.109375 -7.015625 5.109375 -10.984375 L 5.109375 -43.265625 C 5.109375 -46.515625 5.710938 -48.953125 6.921875 -50.578125 C 8.140625 -52.203125 10.113281 -53.015625 12.84375 -53.015625 C 14.445312 -53.015625 15.773438 -52.910156 16.828125 -52.703125 C 17.890625 -52.492188 18.921875 -52.117188 19.921875 -51.578125 C 20.929688 -51.035156 21.679688 -50.179688 22.171875 -49.015625 C 22.660156 -47.859375 22.90625 -46.378906 22.90625 -44.578125 C 22.90625 -42.972656 22.890625 -41.175781 22.859375 -39.1875 C 22.835938 -37.207031 22.828125 -35.804688 22.828125 -34.984375 C 22.828125 -34.304688 22.992188 -33.734375 23.328125 -33.265625 C 23.671875 -32.804688 24.1875 -32.4375 24.875 -32.15625 C 25.570312 -31.875 26.4375 -31.734375 27.46875 -31.734375 C 29.6875 -31.734375 31.171875 -32.609375 31.921875 -34.359375 C 32.671875 -36.117188 33.046875 -39.707031 33.046875 -45.125 C 33.046875 -47.800781 33.765625 -49.785156 35.203125 -51.078125 C 36.648438 -52.367188 38.972656 -53.015625 42.171875 -53.015625 C 45.628906 -53.015625 47.953125 -52.34375 49.140625 -51 C 50.328125 -49.65625 50.921875 -47.253906 50.921875 -43.796875 C 50.921875 -38.128906 49.925781 -33.734375 47.9375 -30.609375 C 45.957031 -27.484375 43.625 -25.769531 40.9375 -25.46875 Z M 40.9375 -25.46875 "/></g></g></g><g fill="#f2819e" fill-opacity="1"><g transform="translate(225.37225, 175.327203)"><g><path d="M 38.078125 -11.609375 C 38.078125 -8.671875 37.710938 -6.335938 36.984375 -4.609375 C 36.265625 -2.878906 35.269531 -1.675781 34 -1 C 32.738281 -0.332031 31.078125 0 29.015625 0 C 25.972656 0 23.769531 -0.8125 22.40625 -2.4375 C 21.039062 -4.0625 20.332031 -6.9375 20.28125 -11.0625 L 20.125 -39.625 L 13.546875 -39.625 C 10.296875 -39.625 7.859375 -40.140625 6.234375 -41.171875 C 4.609375 -42.203125 3.796875 -44.035156 3.796875 -46.671875 C 3.796875 -48.265625 4.117188 -49.523438 4.765625 -50.453125 C 5.410156 -51.390625 6.375 -52.050781 7.65625 -52.4375 C 8.945312 -52.820312 10.675781 -53.015625 12.84375 -53.015625 L 45.96875 -53.015625 C 48.851562 -53.015625 50.941406 -52.5 52.234375 -51.46875 C 53.523438 -50.4375 54.171875 -48.65625 54.171875 -46.125 C 54.171875 -44.425781 53.796875 -43.097656 53.046875 -42.140625 C 52.296875 -41.179688 51.300781 -40.519531 50.0625 -40.15625 C 48.832031 -39.800781 47.238281 -39.625 45.28125 -39.625 L 38.078125 -39.625 Z M 38.078125 -11.609375 "/></g></g></g><g fill="#f2819e" fill-opacity="1"><g transform="translate(282.40406, 175.327203)"><g><path d="M 52.15625 -43.71875 L 52.15625 -20.65625 C 52.15625 -13.125 50.335938 -7.71875 46.703125 -4.4375 C 43.066406 -1.164062 36.941406 0.46875 28.328125 0.46875 C 20.117188 0.46875 14.09375 -1.285156 10.25 -4.796875 C 6.40625 -8.304688 4.484375 -13.59375 4.484375 -20.65625 L 4.484375 -43.71875 C 4.484375 -46.457031 5.296875 -48.691406 6.921875 -50.421875 C 8.546875 -52.148438 10.597656 -53.015625 13.078125 -53.015625 C 16.117188 -53.015625 18.425781 -52.445312 20 -51.3125 C 21.570312 -50.175781 22.359375 -47.878906 22.359375 -44.421875 L 22.359375 -19.1875 C 22.410156 -17.539062 22.679688 -16.226562 23.171875 -15.25 C 23.660156 -14.269531 24.316406 -13.582031 25.140625 -13.1875 C 25.972656 -12.800781 27.035156 -12.609375 28.328125 -12.609375 C 29.617188 -12.609375 30.675781 -12.765625 31.5 -13.078125 C 32.320312 -13.390625 32.925781 -13.878906 33.3125 -14.546875 C 33.695312 -15.222656 33.953125 -15.894531 34.078125 -16.5625 C 34.210938 -17.226562 34.28125 -18.101562 34.28125 -19.1875 L 34.28125 -44.5 C 34.28125 -46.25 34.5 -47.71875 34.9375 -48.90625 C 35.375 -50.09375 36.046875 -50.96875 36.953125 -51.53125 C 37.859375 -52.101562 38.785156 -52.492188 39.734375 -52.703125 C 40.691406 -52.910156 41.84375 -53.015625 43.1875 -53.015625 C 46.175781 -53.015625 48.414062 -52.289062 49.90625 -50.84375 C 51.40625 -49.394531 52.15625 -47.019531 52.15625 -43.71875 Z M 52.15625 -43.71875 "/></g></g></g><g fill="#111111" fill-opacity="1"><g transform="translate(35.549965, 238.895281)"><g><path d="M 51.3125 -12.15625 C 53.320312 -12.15625 54.710938 -13.25 55.484375 -15.4375 C 56.265625 -17.632812 56.65625 -21.207031 56.65625 -26.15625 L 56.8125 -45.125 C 56.8125 -47.851562 57.441406 -49.847656 58.703125 -51.109375 C 59.960938 -52.378906 62.140625 -53.015625 65.234375 -53.015625 C 67.148438 -53.015625 68.6875 -52.703125 69.84375 -52.078125 C 71.007812 -51.460938 72.003906 -50.25 72.828125 -48.4375 C 73.648438 -46.632812 74.210938 -44.1875 74.515625 -41.09375 C 74.828125 -38 74.984375 -33.898438 74.984375 -28.796875 C 74.984375 -25.742188 74.722656 -22.898438 74.203125 -20.265625 C 73.691406 -17.640625 73 -15.347656 72.125 -13.390625 C 71.25 -11.429688 70.203125 -9.664062 68.984375 -8.09375 C 67.773438 -6.519531 66.5 -5.210938 65.15625 -4.171875 C 63.820312 -3.140625 62.40625 -2.273438 60.90625 -1.578125 C 59.40625 -0.890625 57.945312 -0.398438 56.53125 -0.109375 C 55.113281 0.171875 53.734375 0.3125 52.390625 0.3125 C 47.742188 0.3125 43.539062 -1.160156 39.78125 -4.109375 C 36.0625 -1.054688 31.859375 0.46875 27.171875 0.46875 C 25.148438 0.46875 23.132812 0.171875 21.125 -0.421875 C 19.113281 -1.015625 17.0625 -2.035156 14.96875 -3.484375 C 12.882812 -4.929688 11.039062 -6.722656 9.4375 -8.859375 C 7.84375 -11.003906 6.539062 -13.789062 5.53125 -17.21875 C 4.53125 -20.644531 4.03125 -24.453125 4.03125 -28.640625 C 4.03125 -35.390625 4.347656 -40.492188 4.984375 -43.953125 C 5.628906 -47.410156 6.609375 -49.757812 7.921875 -51 C 9.242188 -52.238281 11.171875 -52.859375 13.703125 -52.859375 C 15.816406 -52.859375 17.488281 -52.5625 18.71875 -51.96875 C 19.957031 -51.375 20.835938 -50.507812 21.359375 -49.375 C 21.878906 -48.238281 22.140625 -46.769531 22.140625 -44.96875 L 22.21875 -26.078125 C 22.21875 -21.128906 22.601562 -17.546875 23.375 -15.328125 C 24.144531 -13.109375 25.664062 -12 27.9375 -12 C 29.070312 -12 29.921875 -12.472656 30.484375 -13.421875 C 31.054688 -14.378906 31.445312 -15.914062 31.65625 -18.03125 C 30.976562 -21.019531 30.640625 -25.691406 30.640625 -32.046875 C 30.640625 -35.597656 30.71875 -38.429688 30.875 -40.546875 C 31.03125 -42.660156 31.265625 -44.492188 31.578125 -46.046875 C 31.890625 -47.597656 32.40625 -48.707031 33.125 -49.375 C 33.84375 -50.039062 34.65625 -50.515625 35.5625 -50.796875 C 36.46875 -51.085938 37.71875 -51.234375 39.3125 -51.234375 C 40.238281 -51.234375 41.050781 -51.207031 41.75 -51.15625 C 42.445312 -51.101562 43.101562 -50.945312 43.71875 -50.6875 C 44.34375 -50.425781 44.859375 -50.191406 45.265625 -49.984375 C 45.679688 -49.785156 46.066406 -49.398438 46.421875 -48.828125 C 46.785156 -48.265625 47.070312 -47.773438 47.28125 -47.359375 C 47.488281 -46.953125 47.679688 -46.28125 47.859375 -45.34375 C 48.046875 -44.414062 48.175781 -43.601562 48.25 -42.90625 C 48.332031 -42.21875 48.382812 -41.1875 48.40625 -39.8125 C 48.4375 -38.445312 48.460938 -37.257812 48.484375 -36.25 C 48.515625 -35.25 48.53125 -33.820312 48.53125 -31.96875 C 48.53125 -25.46875 48.191406 -20.664062 47.515625 -17.5625 C 47.722656 -15.707031 48.109375 -14.34375 48.671875 -13.46875 C 49.242188 -12.59375 50.125 -12.15625 51.3125 -12.15625 Z M 51.3125 -12.15625 "/></g></g></g><g fill="#111111" fill-opacity="1"><g transform="translate(114.481368, 238.895281)"><g><path d="M 34.046875 -11.765625 L 21.203125 -11.765625 L 21.203125 -7.65625 C 21.203125 -5.03125 20.503906 -3.097656 19.109375 -1.859375 C 17.722656 -0.617188 15.328125 0 11.921875 0 C 10.472656 0 9.285156 -0.203125 8.359375 -0.609375 C 7.429688 -1.023438 6.617188 -1.722656 5.921875 -2.703125 C 5.222656 -3.679688 4.707031 -5.113281 4.375 -7 C 4.039062 -8.882812 3.78125 -11.15625 3.59375 -13.8125 C 3.414062 -16.46875 3.328125 -19.832031 3.328125 -23.90625 C 3.328125 -27.46875 3.703125 -30.734375 4.453125 -33.703125 C 5.203125 -36.671875 6.207031 -39.1875 7.46875 -41.25 C 8.726562 -43.3125 10.15625 -45.128906 11.75 -46.703125 C 13.351562 -48.273438 15.097656 -49.5 16.984375 -50.375 C 18.867188 -51.257812 20.703125 -51.921875 22.484375 -52.359375 C 24.265625 -52.796875 26.054688 -53.015625 27.859375 -53.015625 C 30.023438 -53.015625 32.164062 -52.71875 34.28125 -52.125 C 36.394531 -51.53125 38.535156 -50.507812 40.703125 -49.0625 C 42.867188 -47.625 44.765625 -45.832031 46.390625 -43.6875 C 48.015625 -41.539062 49.34375 -38.765625 50.375 -35.359375 C 51.40625 -31.960938 51.921875 -28.144531 51.921875 -23.90625 C 51.921875 -17.101562 51.675781 -12.0625 51.1875 -8.78125 C 50.695312 -5.507812 49.867188 -3.226562 48.703125 -1.9375 C 47.546875 -0.644531 45.757812 0 43.34375 0 C 39.9375 0 37.535156 -0.617188 36.140625 -1.859375 C 34.742188 -3.097656 34.046875 -5.03125 34.046875 -7.65625 Z M 27.703125 -40.390625 C 25.484375 -40.390625 23.84375 -39.742188 22.78125 -38.453125 C 21.726562 -37.171875 21.203125 -34.878906 21.203125 -31.578125 L 21.203125 -22.4375 L 34.046875 -22.4375 L 34.046875 -31.734375 C 34.046875 -33.898438 33.785156 -35.640625 33.265625 -36.953125 C 32.753906 -38.265625 32.046875 -39.164062 31.140625 -39.65625 C 30.242188 -40.144531 29.097656 -40.390625 27.703125 -40.390625 Z M 27.703125 -40.390625 "/></g></g></g><g fill="#111111" fill-opacity="1"><g transform="translate(169.578587, 238.895281)"><g><path d="M 40.9375 -25.46875 C 43.570312 -25.15625 45.972656 -23.820312 48.140625 -21.46875 C 50.304688 -19.125 51.390625 -16.117188 51.390625 -12.453125 C 51.390625 -8.898438 51.128906 -6.257812 50.609375 -4.53125 C 50.097656 -2.800781 49.222656 -1.613281 47.984375 -0.96875 C 46.742188 -0.320312 44.859375 0 42.328125 0 C 40.316406 0 38.65625 -0.28125 37.34375 -0.84375 C 36.03125 -1.414062 35.0625 -2.253906 34.4375 -3.359375 C 33.820312 -4.472656 33.515625 -5.90625 33.515625 -7.65625 C 33.515625 -9.925781 33.421875 -11.820312 33.234375 -13.34375 C 33.054688 -14.875 32.820312 -16.085938 32.53125 -16.984375 C 32.25 -17.890625 31.828125 -18.570312 31.265625 -19.03125 C 30.703125 -19.5 30.148438 -19.796875 29.609375 -19.921875 C 29.066406 -20.054688 28.328125 -20.125 27.390625 -20.125 L 23.296875 -20.125 L 23.296875 -11.53125 C 23.296875 -7.40625 22.492188 -4.453125 20.890625 -2.671875 C 19.296875 -0.890625 16.953125 0 13.859375 0 C 10.859375 0 8.648438 -0.835938 7.234375 -2.515625 C 5.816406 -4.191406 5.109375 -7.015625 5.109375 -10.984375 L 5.109375 -43.265625 C 5.109375 -46.515625 5.710938 -48.953125 6.921875 -50.578125 C 8.140625 -52.203125 10.113281 -53.015625 12.84375 -53.015625 C 14.445312 -53.015625 15.773438 -52.910156 16.828125 -52.703125 C 17.890625 -52.492188 18.921875 -52.117188 19.921875 -51.578125 C 20.929688 -51.035156 21.679688 -50.179688 22.171875 -49.015625 C 22.660156 -47.859375 22.90625 -46.378906 22.90625 -44.578125 C 22.90625 -42.972656 22.890625 -41.175781 22.859375 -39.1875 C 22.835938 -37.207031 22.828125 -35.804688 22.828125 -34.984375 C 22.828125 -34.304688 22.992188 -33.734375 23.328125 -33.265625 C 23.671875 -32.804688 24.1875 -32.4375 24.875 -32.15625 C 25.570312 -31.875 26.4375 -31.734375 27.46875 -31.734375 C 29.6875 -31.734375 31.171875 -32.609375 31.921875 -34.359375 C 32.671875 -36.117188 33.046875 -39.707031 33.046875 -45.125 C 33.046875 -47.800781 33.765625 -49.785156 35.203125 -51.078125 C 36.648438 -52.367188 38.972656 -53.015625 42.171875 -53.015625 C 45.628906 -53.015625 47.953125 -52.34375 49.140625 -51 C 50.328125 -49.65625 50.921875 -47.253906 50.921875 -43.796875 C 50.921875 -38.128906 49.925781 -33.734375 47.9375 -30.609375 C 45.957031 -27.484375 43.625 -25.769531 40.9375 -25.46875 Z M 40.9375 -25.46875 "/></g></g></g><g fill="#111111" fill-opacity="1"><g transform="translate(225.37225, 238.895281)"><g><path d="M 38.078125 -11.609375 C 38.078125 -8.671875 37.710938 -6.335938 36.984375 -4.609375 C 36.265625 -2.878906 35.269531 -1.675781 34 -1 C 32.738281 -0.332031 31.078125 0 29.015625 0 C 25.972656 0 23.769531 -0.8125 22.40625 -2.4375 C 21.039062 -4.0625 20.332031 -6.9375 20.28125 -11.0625 L 20.125 -39.625 L 13.546875 -39.625 C 10.296875 -39.625 7.859375 -40.140625 6.234375 -41.171875 C 4.609375 -42.203125 3.796875 -44.035156 3.796875 -46.671875 C 3.796875 -48.265625 4.117188 -49.523438 4.765625 -50.453125 C 5.410156 -51.390625 6.375 -52.050781 7.65625 -52.4375 C 8.945312 -52.820312 10.675781 -53.015625 12.84375 -53.015625 L 45.96875 -53.015625 C 48.851562 -53.015625 50.941406 -52.5 52.234375 -51.46875 C 53.523438 -50.4375 54.171875 -48.65625 54.171875 -46.125 C 54.171875 -44.425781 53.796875 -43.097656 53.046875 -42.140625 C 52.296875 -41.179688 51.300781 -40.519531 50.0625 -40.15625 C 48.832031 -39.800781 47.238281 -39.625 45.28125 -39.625 L 38.078125 -39.625 Z M 38.078125 -11.609375 "/></g></g></g><g fill="#111111" fill-opacity="1"><g transform="translate(282.40406, 238.895281)"><g><path d="M 52.15625 -43.71875 L 52.15625 -20.65625 C 52.15625 -13.125 50.335938 -7.71875 46.703125 -4.4375 C 43.066406 -1.164062 36.941406 0.46875 28.328125 0.46875 C 20.117188 0.46875 14.09375 -1.285156 10.25 -4.796875 C 6.40625 -8.304688 4.484375 -13.59375 4.484375 -20.65625 L 4.484375 -43.71875 C 4.484375 -46.457031 5.296875 -48.691406 6.921875 -50.421875 C 8.546875 -52.148438 10.597656 -53.015625 13.078125 -53.015625 C 16.117188 -53.015625 18.425781 -52.445312 20 -51.3125 C 21.570312 -50.175781 22.359375 -47.878906 22.359375 -44.421875 L 22.359375 -19.1875 C 22.410156 -17.539062 22.679688 -16.226562 23.171875 -15.25 C 23.660156 -14.269531 24.316406 -13.582031 25.140625 -13.1875 C 25.972656 -12.800781 27.035156 -12.609375 28.328125 -12.609375 C 29.617188 -12.609375 30.675781 -12.765625 31.5 -13.078125 C 32.320312 -13.390625 32.925781 -13.878906 33.3125 -14.546875 C 33.695312 -15.222656 33.953125 -15.894531 34.078125 -16.5625 C 34.210938 -17.226562 34.28125 -18.101562 34.28125 -19.1875 L 34.28125 -44.5 C 34.28125 -46.25 34.5 -47.71875 34.9375 -48.90625 C 35.375 -50.09375 36.046875 -50.96875 36.953125 -51.53125 C 37.859375 -52.101562 38.785156 -52.492188 39.734375 -52.703125 C 40.691406 -52.910156 41.84375 -53.015625 43.1875 -53.015625 C 46.175781 -53.015625 48.414062 -52.289062 49.90625 -50.84375 C 51.40625 -49.394531 52.15625 -47.019531 52.15625 -43.71875 Z M 52.15625 -43.71875 "/></g></g></g></svg>